name processed_emg_signals
nRows=67
nColumns=7
 
endheader
time	RGLTMED	RRF	RADDLONG	RST	RTA	RGM
0.58	0.2118813225870553	0.0116026608806676	0.1340968225824917	0.792199576896284	0.4701882797906888	0.2114770061987758
0.581	0.2127843670206452	0.0146811752126588	0.1328486940012728	0.7947391839768376	0.4649765717388019	0.2128684838478188
0.582	0.2137839195204462	0.0175700592927089	0.1316349066317966	0.7971227340437896	0.459822934630814	0.214254975917455
0.583	0.2148825511963958	0.0202715807784593	0.1304555264564361	0.7993520702890748	0.4547317552867846	0.2156356202286797
0.584	0.2160827963381196	0.0227881164453834	0.1293106279514948	0.8014291469396501	0.4497074329680526	0.2170095285641731
0.585	0.217387148163981	0.0251221468471625	0.1282002939729995	0.803356022741084	0.4447543734081282	0.2183757874434009
0.586	0.2187980545499672	0.0272762509733479	0.1271246156125885	0.80513485434165	0.4398769826320631	0.2197334589829441
0.587	0.2203179137445572	0.0292531009125446	0.1260836920247562	0.8067678895998431	0.435079660577205	0.221081581840731
0.588	0.2219490700760152	0.0310554565292683	0.1250776302265337	0.808257460839268	0.4303667945295061	0.2224191722426182
0.589	0.2236938096578404	0.0326861601623142	0.1241065448705239	0.8096059780755446	0.425742752390808	0.2237452250897922
0.59	0.2255543560985386	0.0341481313524133	0.1231705579920965	0.8108159222411337	0.4212118757940264	0.2250587151457546
0.591	0.2275328662212554	0.0354443616065836	0.122269798731099	0.811889838434306	0.4167784730850152	0.2263585983021636
0.592	0.2296314257990399	0.0365779092064934	0.1214044030283156	0.8128303292181844	0.4124468121918637	0.2276438129232674
0.593	0.2318520453108079	0.0375518940678537	0.1205745132966106	0.8136400479945102	0.4082211134041776	0.2289132812690611
0.594	0.2341966557230397	0.0383694926575772	0.1197802780665394	0.8143216924748985	0.4041055420862419	0.2301659109975843
0.595	0.236667104301439	0.0390339329752654	0.1190218516063171	0.8148779982699915	0.4001042013488026	0.2314005967468608
0.596	0.2392651504567835	0.0395484896051778	0.1182993935158939	0.8153117326144848	0.3962211247044686	0.2326162217969509
0.597	0.2419924616292717	0.0399164788445352	0.1176130682953367	0.8156256882433668	0.3924602687317547	0.2338116598124808
0.598	0.2448506092165392	0.0401412539135633	0.1169630448876603	0.8158226774322722	0.3888255057724064	0.2349857766656611
0.599	0.2478410645522595	0.0402262002523173	0.116349496196742	0.8159055262125937	0.3853206166860204	0.2361374323394175
0.6	0.2509651949439149	0.0401747309089208	0.1157725985811019	0.8158770687699495	0.3819492836851279	0.2372654829095541
0.601	0.2542242597799883	0.0399902820235707	0.1152325313245116	0.815740142033162	0.3787150832729073	0.2383687826042062
0.602	0.2576194067174331	0.03967630841234	0.1147294760847355	0.8154975804596025	0.375621479304835	0.2394461859379967
0.603	0.2611516679612039	0.0392362792544944	0.1142636163216855	0.8151522110213872	0.3726718161948423	0.2404965499174967
0.604	0.2648219566475805	0.0386736738867571	0.1138351367064623	0.8147068483957333	0.3698693122859143	0.2415187363136861
0.605	0.2686310633435029	0.0379919777076876	0.1134442225128908	0.8141642903616881	0.3672170534044676	0.2425116139962448
0.606	0.2725796526741504	0.0371946781950769	0.1130910589931726	0.8135273134045395	0.3647179866171185	0.2434740613236272
0.607	0.2766682600912523	0.0362852610390876	0.1127758307394413	0.8127986685284306	0.3623749142076076	0.2444049685820678
0.608	0.2808972887944657	0.035267206393545	0.1124987210330129	0.811981077276733	0.3601904878906711	0.245303240465896
0.609	0.2852670068180589	0.0341439852475925	0.1122599111831605	0.8110772279583208	0.3581672032785334	0.2461677985907851
0.61	0.2897775442945328	0.0329190559196239	0.1120595798572787	0.8100897720763328	0.3563073946145242	0.246997584030867
0.611	0.2944288909062484	0.0315958606750996	0.1118979024043556	0.8090213209541411	0.354613229787122	0.2477915598699122
0.612	0.2992208935352036	0.0301778224696901	0.1117750501735252	0.80787444255206	0.3530867056364072	0.2485487137560522
0.613	0.3041532541203895	0.0286683418188554	0.1116911898296109	0.8066516584672886	0.3517296435637262	0.2492680604488279
0.614	0.3092255277316051	0.0270707937948267	0.1116464826672537	0.8053554411093458	0.350543685454195	0.2499486443466745
0.615	0.3144371208678674	0.0253885251515787	0.1116410839255469	0.8039882110431555	0.3495302899206656	0.2505895419826292
0.616	0.3197872899883356	0.023624851578149	0.1116751421050498	0.8025523344928355	0.3486907288768818	0.2511898644760234
0.617	0.325275140283125	0.0217830550803336	0.1117487982893734	0.8010501210003907	0.3480260844467063	0.2517487599284234
0.618	0.33089962469087	0.0198663814905378	0.1118621854738115	0.799483821235216	0.3475372462154804	0.2522654157528118
0.619	0.3366595431695545	0.0178780381053299	0.1120154279033598	0.7978556249518945	0.3472249088285809	0.2527390609258875
0.62	0.3425535422261711	0.0158211914499897	0.1122086404227853	0.7961676590953268	0.3470895699412309	0.2531689681542964
0.621	0.3485801147103994	0.0136989651691536	0.1124419278410415	0.7944219860539965	0.3471315285223544	0.2535544559462094
0.622	0.3547375998765582	0.011514438042393	0.1127153843123594	0.7926206020635994	0.3473508835140899	0.2538948905804222
0.623	0.3610241837174174	0.009270642123471	0.1130290927361609	0.79076543576467	0.3477475328474476	0.2541896879658311
0.624	0.3674378995731475	0.0069705610018043	0.1133831241776968	0.7888583469186452	0.3483211728135394	0.2544383153852823
0.625	0.3739766290177254	0.0046171281845437	0.113777537311318	0.7869011252866105	0.3490712977888947	0.2546402931190042
0.626	0.3806381030251383	0.0022132255975982	0.1142123778880075	0.7848954896739114	0.3499972003125076	0.2547951959440521
0.627	0.3874199034165207	0.0002383177961738	0.1146876782284951	0.782843087142404	0.3510979715113556	0.2549026545074089
0.628	0.3943194645889597	0.0027347272634431	0.1152034567432278	0.7807454923905519	0.3523725018701257	0.2549623565712851
0.629	0.4013340755256568	0.0052732834534754	0.1157597174799586	0.7786042073004177	0.3538194823398645	0.2549740481298674
0.63	0.4084608820866516	0.0078513234398242	0.1163564496996963	0.7764206606491335	0.355437405779085	0.2549375343970438
0.631	0.4156968895781711	0.010466241652782	0.1169936274812468	0.7741962079816466	0.3572245687196698	0.2548526806649526
0.632	0.4230389655981558	0.013115490704886	0.1176712093544174	0.771932131640879	0.3591790734486707	0.2547194130332247
0.633	0.4304838431540363	0.0157965821119462	0.1183891379616949	0.7696296409516274	0.3612988303958313	0.2545377190086605
0.634	0.4380281240481854	0.0185070869121478	0.1191473397477476	0.7672898725551038	0.3635815608154193	0.2543076479747697
0.635	0.4456682825253008	0.0212446361859854	0.1199457246761367	0.7649138908917765	0.3660247997498527	0.2540293115304213
0.636	0.4534006691751868	0.0240069214798786	0.1207841859723778	0.7625026888302553	0.3686258992615855	0.2537028836969023
0.637	0.4612215150830043	0.0267916951364442	0.1216625998925887	0.760057188439946	0.3713820319191646	0.2533286009932083
0.638	0.4691269362180073	0.0295967705345416	0.1225808255171662	0.7575782419045531	0.3742901945229916	0.2529067623799907
0.639	0.4771129380502779	0.0324200222423106	0.1235387045690602	0.7550666325731258	0.3773472120564473	0.2524377290733725
0.64	0.4851754203834714	0.0352593860865083	0.1245360612563741	0.7525230761443638	0.3805497418482977	0.2519219242302993
0.641	0.4933101823903991	0.0381128591415916	0.1255727021389292	0.7499482219787837	0.3838942779326116	0.2513598325073357
0.642	0.5015129278365634	0.0409784996421002	0.1266484160183657	0.7473426545323459	0.3873771555925152	0.2507519994945058
0.643	0.5097792704758859	0.0438544268219486	0.1277629738510839	0.7447068949051255	0.3909945560739851	0.2500990310252444
0.644	0.5181047396015306	0.0467388206842373	0.1289161286832888	0.7420414024993075	0.3947425114555798	0.2494015923628721
0.645	0.5264847857345294	0.0496299217052309	0.1301076156073786	0.7393465767821041	0.3986169096599136	0.2486604072636318
0.646	0.5349147864324997	0.0525260304761266	0.1313371517389049	0.7366227591508491	0.4026134995929013	0.2478762569162282
